<svg xmlns="http://www.w3.org/2000/svg" version="1.1" xmlns:xlink="http://www.w3.org/1999/xlink" xmlns:svgjs="http://svgjs.com/svgjs" width="1440" height="560" preserveAspectRatio="none" viewBox="0 0 1440 560"><g mask="url(&quot;#SvgjsMask1002&quot;)" fill="none"><rect width="1440" height="560" x="0" y="0" fill="rgba(117, 255, 191, 1)"></rect><path d="M700 249.23C675.12 249.23 656.25 259.8 656.25 280C656.25 313.02 671.31 323.76 700 355.68C734.22 393.76 738.36 392.42 782.07 420C808.36 436.58 813.38 444 840 444C854.52 444 864.35 435.81 864.35 420C864.35 359.19 854.15 354.62 840 290.77C838.64 284.62 839.26 281.76 833.33 280C769.26 260.99 763.66 249.23 700 249.23" stroke="rgba(255, 255, 255, 0.58)" stroke-width="2"></path><path d="M140 364C104.73 364 62.76 391.77 62.76 420C62.76 448.49 104.82 477.44 140 477.44C167.27 477.44 187.66 448.57 187.66 420C187.66 391.85 167.18 364 140 364" stroke="rgba(255, 255, 255, 0.58)" stroke-width="2"></path><path d="M106.4 140C106.4 111 29.35 132.76 0 94.14C-23.85 62.76 -22.38 24.69 0 0C20.28 -22.38 56.98 -22.85 85.31 0C126.98 33.6 110.68 112.9 140 112.9C170.43 112.9 160.44 35.78 204.81 0C230.44 -20.67 242.4 0 280 0C310.76 0 341.06 -20.2 341.52 0C342.65 49.8 304.22 68.18 283.18 140C273.46 173.18 302.93 190.78 280 210C231.34 250.78 204.85 229.48 140 260C130.48 264.48 140.01 273.88 131.25 280C70.01 322.77 43.47 357.78 0 357.78C-22.16 357.78 0 318.89 0 280C0 249.12 -16.95 240.54 0 218.24C36.25 170.54 106.4 173.05 106.4 140" stroke="rgba(255, 255, 255, 0.58)" stroke-width="2"></path><path d="M529.45 140C558.21 79.83 529.67 62.58 543.33 0C544.95 -7.42 551.66 0 560 0C610 0 610.15 -2.08 660 0C680.15 0.84 680.19 1.85 700 5.83C770.19 19.92 769.22 29.74 840 36.13C909.22 42.38 920.33 6.62 980 31.11C1046.87 58.55 1061.93 74.24 1093.08 140C1120.88 198.68 1108.61 212 1097.89 280C1086.53 352 1083.2 355.6 1048.92 420C1024.26 466.33 1015.73 461.88 980 501.45C952.52 531.88 957.41 545.4 922.5 560C887.41 574.68 881.25 560 840 560C803.9 560 767.81 574.01 767.81 560C767.81 541.01 804.56 527.69 840 494C878.19 457.69 905.16 465.43 915.07 420C928.5 358.43 910.16 346.19 886.67 280C872.63 240.44 875.35 221.62 840 208.51C782.02 187.01 764.11 191.55 700 210.77C644.89 227.29 642.63 238.02 601.56 280C572.63 309.58 593.84 345.19 560 353.89C503.06 368.53 488.44 345.79 420 326.67C356.22 308.85 295.56 297.59 295.56 280C295.56 263.28 368.57 288.82 420 258.04C485.52 218.82 496.54 208.85 529.45 140" stroke="rgba(255, 255, 255, 0.58)" stroke-width="2"></path><path d="M1260 80C1227.26 42.91 1201.05 25.11 1201.05 0C1201.05 -14.89 1230.53 0 1260 0C1330 0 1330 0 1400 0C1470 0 1505 -35 1540 0C1575 35 1540 70 1540 140C1540 204.16 1569.68 263.14 1540 268.33C1499.68 275.39 1474.03 208.61 1400 164.5C1366.34 144.44 1357.76 160 1324.62 140C1287.76 117.75 1289.05 112.91 1260 80" stroke="rgba(255, 255, 255, 0.58)" stroke-width="2"></path><path d="M262.13 420C262.13 362.67 266.25 300 280 300C294.27 300 318.18 367.85 318.18 420C318.18 437.85 297.28 440 280 440C269.25 440 262.13 432.67 262.13 420" stroke="rgba(255, 255, 255, 0.58)" stroke-width="2"></path><path d="M1487.5 420C1487.5 365.62 1526.33 296.47 1540 296.47C1552.58 296.47 1540 358.24 1540 420C1540 438.75 1549.65 457.5 1540 457.5C1523.4 457.5 1487.5 446.14 1487.5 420" stroke="rgba(255, 255, 255, 0.58)" stroke-width="2"></path><path d="M0 451.11C40.95 451.11 133.64 529.33 133.64 560C133.64 583.78 36.82 590 0 560C-30 535.56 -25.87 451.11 0 451.11" stroke="rgba(255, 255, 255, 0.58)" stroke-width="2"></path><path d="M1174.25 560C1174.25 521.07 1202.55 459.83 1260 437.5C1315.42 415.95 1340.84 437.87 1400 472.24C1446.26 499.12 1470.84 533.05 1470.84 560C1470.84 576.93 1435.42 560 1400 560C1330 560 1330 560 1260 560C1217.13 560 1174.25 582.32 1174.25 560" stroke="rgba(255, 255, 255, 0.58)" stroke-width="2"></path><path d="M30.62 0C30.62 10.11 8.79 33.79 0 33.79C-6.52 33.79 -8.03 8.86 0 0C7.28 -8.03 30.62 -6.79 30.62 0" stroke="rgba(255, 255, 255, 0.58)" stroke-width="2"></path><path d="M280 20C275.2 20 269.63 6.85 269.63 0C269.63 -3.15 274.82 0 280 0C284.24 0 288.48 -2.81 288.48 0C288.48 7.19 284.63 20 280 20" stroke="rgba(255, 255, 255, 0.58)" stroke-width="2"></path><path d="M613.53 140C613.53 115 654.16 78.75 700 78.75C761.31 78.75 827.83 115.76 827.83 140C827.83 162.54 763.03 172.31 700 172.31C655.88 172.31 613.53 161.78 613.53 140" stroke="rgba(255, 255, 255, 0.58)" stroke-width="2"></path><path d="M854.74 140C864.83 98.47 922.16 95.93 980 95.93C1007.68 95.93 1016.97 111.33 1025.77 140C1045.22 203.36 1044.01 211.37 1036.49 280C1028.67 351.37 1019.43 351.97 995.08 420C991.19 430.88 987.41 437.82 980 437.82C972.77 437.82 968.87 430.83 965.8 420C946.51 351.92 961.38 345.81 935.28 280C905.85 205.81 842.47 190.51 854.74 140" stroke="rgba(255, 255, 255, 0.58)" stroke-width="2"></path><path d="M1400 14C1392.96 14 1385.26 4.06 1385.26 0C1385.26 -2.94 1392.63 0 1400 0C1406.09 0 1412.17 -2.77 1412.17 0C1412.17 4.23 1406.42 14 1400 14" stroke="rgba(255, 255, 255, 0.58)" stroke-width="2"></path><path d="M0 515.93C16.58 515.93 54.09 547.59 54.09 560C54.09 569.62 14.9 572.14 0 560C-12.14 550.11 -10.47 515.93 0 515.93" stroke="rgba(255, 255, 255, 0.58)" stroke-width="2"></path><path d="M822.5 560C822.5 555.4 830.99 544 840 544C849.74 544 860 555.51 860 560C860 563.51 850 560 840 560C831.25 560 822.5 563.4 822.5 560" stroke="rgba(255, 255, 255, 0.58)" stroke-width="2"></path><path d="M1218 560C1218 540.93 1229.05 506.04 1260 500C1320.05 488.28 1336.17 501.77 1400 524.48C1420.5 531.77 1428.67 549.09 1428.67 560C1428.67 566.85 1414.34 560 1400 560C1330 560 1330 560 1260 560C1239 560 1218 570.93 1218 560" stroke="rgba(255, 255, 255, 0.58)" stroke-width="2"></path></g><defs><mask id="SvgjsMask1002"><rect width="1440" height="560" fill="#ffffff"></rect></mask></defs></svg>