<svg xmlns="http://www.w3.org/2000/svg" version="1.1" xmlns:xlink="http://www.w3.org/1999/xlink" xmlns:svgjs="http://svgjs.com/svgjs" width="1440" height="560" preserveAspectRatio="none" viewBox="0 0 1440 560"><g mask="url(&quot;#SvgjsMask1000&quot;)" fill="none"><rect width="1440" height="560" x="0" y="0" fill="#0e2a47"></rect><path d="M0,490.68C96.426,478.959,201.344,492.724,280.231,436.047C357.92,380.23,375.939,276.826,417.546,190.687C460.209,102.361,537.594,21.727,527.484,-75.841C517.308,-174.045,422.368,-235.923,365.013,-316.285C300.549,-406.608,278.703,-557.482,169.533,-577.376C57.01,-597.881,-21.195,-464.139,-118.755,-404.441C-187.88,-362.143,-253.092,-322.779,-320.369,-277.601C-414.79,-214.195,-554.79,-192.195,-593.874,-85.386C-632.286,19.587,-552.232,129.314,-506.611,231.361C-460.639,334.193,-427.993,458.626,-327.725,509.95C-228.301,560.842,-110.876,504.158,0,490.68" fill="#0b2239"></path><path d="M1440 1201.382C1557.974 1202.758 1645.961 1093.921 1729.75 1010.86 1800.301 940.922 1831.234 847.108 1882.9470000000001 762.287 1943.211 663.439 2051.5209999999997 586.555 2058.873 471.019 2066.569 350.073 2007.827 227.962 1922.4180000000001 141.98200000000003 1839.228 58.23599999999999 1715.9940000000001 38.620000000000005 1601.362 10.451000000000022 1491.535-16.537000000000035 1378.68-50.25999999999999 1270.198-18.29200000000003 1161.762 13.662000000000035 1070.362 91.31799999999998 1007.6859999999999 185.39800000000002 949.066 273.39 947.6320000000001 382.395 933.46 487.171 919.413 591.025 884.008 698.735 925.218 795.093 966.735 892.169 1071.683 938.741 1154.561 1004.152 1247.22 1077.2820000000002 1321.967 1200.0059999999999 1440 1201.382" fill="#113255"></path></g><defs><mask id="SvgjsMask1000"><rect width="1440" height="560" fill="#ffffff"></rect></mask></defs></svg>